#!OML:ASF E:\motion texture\Top Level 1\Subject 1\Session 1\male.ASF
:FULLY-SPECIFIED
:DEGREES
263
root 19.9 17.7645 5.35507 482.957 -75.7775 -483.996
lowerback 3.3182 1.93039 9.22066
upperback -0.748948 2.91802 4.49942
thorax -2.41695 1.27969 -0.635873
lowerneck -19.6277 -4.18971 -6.06715
upperneck 16.8899 -5.60011 7.24903
head 8.90462 -2.27597 2.71512
rclavicle -1.02685e-014 -2.20651e-014
rhumerus -4.3814 17.6237 -84.8421
rradius 60.0405
rwrist -9.70272
rhand -11.9072 -16.1349
rfingers 7.12502
rthumb 14.1464 -45.6333
lclavicle -1.02685e-014 -2.20651e-014
lhumerus -55.6431 -3.38716 78.7632
lradius 35.622
lwrist -12.9955
lhand -4.02668 15.605
lfingers 7.12502
lthumb 21.7283 44.4056
rfemur -3.18571 7.48786 39.5798
rtibia 24.8314
rfoot 346.737 -3.7208
rtoes 17.0736
lfemur -74.7603 8.8233 -7.03105
ltibia 64.8504
lfoot 563.193 3.33186
ltoes 15.8653
264
root 19.7475 17.7785 5.35983 484.044 -75.5577 -485.119
lowerback 3.40089 2.08471 9.28327
upperback -0.757314 3.13747 4.4687
thorax -2.45053 1.38618 -0.714557
lowerneck -19.6232 -4.24742 -6.11167
upperneck 16.8825 -5.6727 7.27673
head 8.90889 -2.31013 2.72172
rclavicle -1.61637e-014 3.91606e-014
rhumerus -3.03404 17.965 -84.2937
rradius 61.1022
rwrist -9.65841
rhand -11.7828 -15.934
rfingers 7.12502
rthumb 14.2663 -45.424
lclavicle -1.61637e-014 3.91606e-014
lhumerus -56.8444 -3.10907 77.8874
lradius 35.6206
lwrist -12.9016
lhand -3.9236 15.4308
lfingers 7.12502
lthumb 21.8273 44.2198
rfemur -2.29851 7.4419 39.5707
rtibia 24.3042
rfoot 346.646 -3.43078
rtoes 16.9502
lfemur -77.0922 8.79121 -7.16842
ltibia 64.681
lfoot 562.525 4.01852
ltoes 14.9949
265
root 19.5949 17.7908 5.36389 485.033 -75.3625 -486.169
lowerback 3.51573 2.224 9.3028
upperback -0.759841 3.33932 4.44478
thorax -2.4996 1.48426 -0.763516
lowerneck -19.6276 -4.29903 -6.15565
upperneck 16.8673 -5.73592 7.30498
head 8.91142 -2.33961 2.7296
rclavicle -3.78933e-016 -5.26779e-014
rhumerus -1.71781 18.2476 -83.7388
rradius 62.0927
rwrist -9.56971
rhand -11.6751 -15.7069
rfingers 7.12502
rthumb 14.37 -45.1895
lclavicle -3.78933e-016 -5.26779e-014
lhumerus -57.9985 -2.88432 77.0678
lradius 35.6237
lwrist -12.7626
lhand -3.88175 15.258
lfingers 7.12502
lthumb 21.8675 44.0424
rfemur -1.40644 7.4103 39.5489
rtibia 23.8099
rfoot 346.558 -3.19175
rtoes 16.7598
lfemur -79.2294 8.72677 -7.29993
ltibia 64.6593
lfoot 561.76 4.7251
ltoes 13.9754
266
root 19.4426 17.8016 5.36706 485.907 -75.1882 -487.13
lowerback 3.66748 2.34693 9.28508
upperback -0.754233 3.52224 4.42962
thorax -2.56488 1.57317 -0.78425
lowerneck -19.6382 -4.34426 -6.19727
upperneck 16.8446 -5.78943 7.33079
head 8.91165 -2.3645 2.7375
rclavicle 5.45415e-015 5.12864e-014
rhumerus -0.441577 18.4763 -83.1879
rradius 63.014
rwrist -9.4648
rhand -11.6042 -15.4924
rfingers 7.12502
rthumb 14.4384 -44.9702
lclavicle 5.45415e-015 5.12864e-014
lhumerus -59.1023 -2.69817 76.2995
lradius 35.6346
lwrist -12.5825
lhand -3.86996 15.0889
lfingers 7.12502
lthumb 21.8788 43.8719
rfemur -0.507773 7.39363 39.5263
rtibia 23.3516
rfoot 346.473 -3.00848
rtoes 16.4946
lfemur -81.158 8.63654 -7.42086
ltibia 64.7772
lfoot 560.951 5.42372
ltoes 12.8545
267
root 19.2903 17.8108 5.36958 486.663 -75.0293 -487.993
lowerback 3.84026 2.45455 9.24744
upperback -0.739387 3.68587 4.42097
thorax -2.6355 1.65284 -0.787969
lowerneck -19.6562 -4.38133 -6.23242
upperneck 16.8134 -5.83189 7.35447
head 8.90921 -2.38384 2.74503
rclavicle 1.69278e-014 2.52457e-014
rhumerus 0.784751 18.6525 -82.6525
rradius 63.8735
rwrist -9.37617
rhand -11.5644 -15.2934
rfingers 7.12502
rthumb 14.4767 -44.7684
lclavicle 1.69278e-014 2.52457e-014
lhumerus -60.1407 -2.5485 75.5838
lradius 35.6399
lwrist -12.3643
lhand -3.86904 14.9257
lfingers 7.12502
lthumb 21.8797 43.7086
rfemur 0.384219 7.39545 39.5099
rtibia 22.9399
rfoot 346.388 -2.87049
rtoes 16.212
lfemur -82.8883 8.52281 -7.52599
ltibia 65.0096
lfoot 560.143 6.08544
ltoes 11.7488
268
root 19.1385 17.8181 5.37171 487.281 -74.8831 -488.724
lowerback 4.02321 2.54704 9.20347
upperback -0.719256 3.82971 4.41944
thorax -2.70892 1.72276 -0.78094
lowerneck -19.6807 -4.41042 -6.25904
upperneck 16.7763 -5.8639 7.37376
head 8.90471 -2.39805 2.75102
rclavicle 7.14382e-016 1.74931e-014
rhumerus 1.95039 18.77 -82.144
rradius 64.6732
rwrist -9.31822
rhand -11.5419 -15.1052
rfingers 7.12502
rthumb 14.4984 -44.5787
lclavicle 7.14382e-016 1.74931e-014
lhumerus -61.1076 -2.42978 74.9208
lradius 35.6364
lwrist -12.1282
lhand -3.85686 14.7602
lfingers 7.12502
lthumb 21.8914 43.5417
rfemur 1.24708 7.40284 39.5058
rtibia 22.5852
rfoot 346.309 -2.77472
rtoes 15.8523
lfemur -84.4323 8.38573 -7.61058
ltibia 65.3456
lfoot 559.41 6.66108
ltoes 10.7807
269
root 18.9863 17.8238 5.37363 487.796 -74.7399 -489.351
lowerback 4.19627 2.62986 9.16448
upperback -0.686752 3.95812 4.42433
thorax -2.76529 1.78574 -0.769006
lowerneck -19.72 -4.43275 -6.27716
upperneck 16.7325 -5.88641 7.38797
head 8.89942 -2.40743 2.75501
rclavicle -1.89715e-014 1.94809e-014
rhumerus 3.05433 18.831 -81.6654
rradius 65.416
rwrist -9.30013
rhand -11.5251 -14.9382
rfingers 7.12502
rthumb 14.5146 -44.4105
lclavicle -1.89715e-014 1.94809e-014
lhumerus -61.9845 -2.33817 74.3155
lradius 35.6159
lwrist -11.8863
lhand -3.82981 14.596
lfingers 7.12502
lthumb 21.9174 43.3745
rfemur 2.07462 7.41664 39.5165
rtibia 22.2957
rfoot 346.23 -2.70544
rtoes 15.4232
lfemur -85.7915 8.23895 -7.66988
ltibia 65.7712
lfoot 558.769 7.13917
ltoes 9.9591
270
root 18.835 17.8279 5.3752 488.14 -74.6127 -489.793
lowerback 4.35527 2.697 9.13392
upperback -0.652341 4.06373 4.43566
thorax -2.81357 1.83749 -0.753491
lowerneck -19.7633 -4.44892 -6.28767
upperneck 16.6809 -5.90097 7.39881
head 8.89119 -2.41287 2.75762
rclavicle -1.3008e-014 6.44062e-014
rhumerus 4.08064 18.8314 -81.2271
rradius 66.1059
rwrist -9.32039
rhand -11.5052 -14.7945
rfingers 7.12502
rthumb 14.5338 -44.2653
lclavicle -1.3008e-014 6.44062e-014
lhumerus -62.7692 -2.27691 73.7715
lradius 35.5738
lwrist -11.664
lhand -3.76629 14.4518
lfingers 7.12502
lthumb 21.9784 43.2232
rfemur 2.84065 7.42333 39.5447
rtibia 22.0759
rfoot 346.158 -2.66774
rtoes 14.9325
lfemur -86.9869 8.0628 -7.70032
ltibia 66.2719
lfoot 558.245 7.51594
ltoes 9.31851
271
root 18.684 17.8304 5.37658 488.354 -74.4923 -490.084
lowerback 4.49333 2.75519 9.12093
upperback -0.617793 4.15524 4.45046
thorax -2.85016 1.88224 -0.742407
lowerneck -19.8093 -4.46121 -6.28886
upperneck 16.6222 -5.91176 7.40762
head 8.88039 -2.41614 2.75847
rclavicle -1.44305e-014 -2.78299e-014
rhumerus 5.0199 18.7699 -80.835
rradius 66.7439
rwrist -9.36736
rhand -11.4708 -14.6619
rfingers 7.12502
rthumb 14.5669 -44.1304
lclavicle -1.44305e-014 -2.78299e-014
lhumerus -63.4541 -2.25726 73.2972
lradius 35.5074
lwrist -11.4719
lhand -3.6559 14.3246
lfingers 7.12502
lthumb 22.0844 43.0835
rfemur 3.53924 7.4258 39.5915
rtibia 21.9325
rfoot 346.089 -2.64815
rtoes 14.3757
lfemur -88.0193 7.87396 -7.69938
ltibia 66.8398
lfoot 557.831 7.80096
ltoes 8.82519
272
root 18.5334 17.8314 5.37776 488.466 -74.3841 -490.244
lowerback 4.60428 2.80521 9.11998
upperback -0.58556 4.233 4.46657
thorax -2.87426 1.92031 -0.734574
lowerneck -19.8621 -4.47232 -6.28565
upperneck 16.5578 -5.92138 7.41667
head 8.86863 -2.41843 2.75874
rclavicle -1.00883e-014 2.92213e-014
rhumerus 5.8675 18.6516 -80.4927
rradius 67.3352
rwrist -9.42276
rhand -11.4211 -14.5457
rfingers 7.12502
rthumb 14.6148 -44.0107
lclavicle -1.00883e-014 2.92213e-014
lhumerus -64.0429 -2.28177 72.9014
lradius 35.4224
lwrist -11.3167
lhand -3.51575 14.204
lfingers 7.12502
lthumb 22.2189 42.9469
rfemur 4.16202 7.42573 39.6475
rtibia 21.8654
rfoot 346.021 -2.63913
rtoes 13.7708
lfemur -88.8988 7.67409 -7.67439
ltibia 67.4663
lfoot 557.511 8.01773
ltoes 8.42907
273
root 18.3829 17.8311 5.37872 488.517 -74.284 -490.315
lowerback 4.67854 2.85219 9.12837
upperback -0.551251 4.30206 4.48348
thorax -2.87557 1.95478 -0.728554
lowerneck -19.9188 -4.48367 -6.28398
upperneck 16.4807 -5.93096 7.43155
head 8.85346 -2.42017 2.76115
rclavicle 1.44336e-014 4.63168e-014
rhumerus 6.62613 18.481 -80.1977
rradius 67.8807
rwrist -9.46956
rhand -11.3542 -14.4424
rfingers 7.12502
rthumb 14.6793 -43.9028
lclavicle 1.44336e-014 4.63168e-014
lhumerus -64.5227 -2.34514 72.5866
lradius 35.3088
lwrist -11.2037
lhand -3.36299 14.0717
lfingers 7.12502
lthumb 22.3656 42.7971
rfemur 4.71168 7.42696 39.708
rtibia 21.8711
rfoot 345.955 -2.63286
rtoes 13.1232
lfemur -89.6204 7.47391 -7.6269
ltibia 68.1438
lfoot 557.259 8.18717
ltoes 8.09359
